<svg xmlns="http://www.w3.org/2000/svg" viewBox="0 0 1947 452.27"><defs><style>.cls-1{fill:#ad1818;}.cls-2{font-size:338.54px;font-family:MyriadPro-Regular, Myriad Pro;}</style></defs><title>Asset 2</title><g id="Layer_2" data-name="Layer 2"><g id="Layer_1-2" data-name="Layer 1"><path class="cls-1" d="M223.63,446.76A223.13,223.13,0,0,1,65.85,65.85,223.13,223.13,0,1,1,381.4,381.4,221.63,221.63,0,0,1,223.63,446.76Z"></path><path d="M223.63,1a222.68,222.68,0,0,1,86.65,427.76A222.69,222.69,0,0,1,137,18.49,221.4,221.4,0,0,1,223.63,1m0-1C100.12,0,0,100.12,0,223.63S100.12,447.26,223.63,447.26,447.26,347.13,447.26,223.63,347.13,0,223.63,0Z"></path><text class="cls-2" transform="translate(535.67 367.63)">NOV 2020</text></g></g></svg>